<svg width="24" height="24" viewBox="0 0 24 24" fill="none" xmlns="http://www.w3.org/2000/svg">
<path d="M9.93807 14.062C7.64731 11.7712 7.13007 9.48049 7.01338 8.5627C6.98077 8.30892 7.0681 8.05443 7.24966 7.87414L9.10345 6.02118C9.37614 5.74865 9.42454 5.32393 9.22014 4.99704L6.26855 0.413871C6.04242 0.0519049 5.57811 -0.0787322 5.19641 0.112216L0.45807 2.3438C0.149405 2.49579 -0.032148 2.82374 0.00289757 3.16601C0.251173 5.52463 1.27945 11.3227 6.97738 17.021C12.6753 22.7194 18.4726 23.7472 20.8324 23.9955C21.1747 24.0306 21.5026 23.849 21.6546 23.5403L23.8862 18.802C24.0764 18.4211 23.9467 17.9581 23.5862 17.7315L19.003 14.7808C18.6763 14.5762 18.2516 14.6242 17.9789 14.8966L16.1259 16.7504C15.9456 16.932 15.6912 17.0193 15.4374 16.9867C14.5196 16.87 12.2288 16.3528 9.93807 14.062V14.062Z" fill="#FF6B00"/>
<path d="M19.0344 12.8276C18.5774 12.8276 18.2068 12.4571 18.2068 12C18.203 8.57364 15.4263 5.79699 11.9999 5.79311C11.5429 5.79311 11.1724 5.42259 11.1724 4.96553C11.1724 4.50846 11.5429 4.13794 11.9999 4.13794C16.3401 4.14273 19.8572 7.65989 19.862 12C19.862 12.4571 19.4915 12.8276 19.0344 12.8276Z" fill="#FF6B00"/>
<path d="M23.1724 12.8276C22.7153 12.8276 22.3448 12.4571 22.3448 12C22.3384 6.28936 17.7106 1.66156 12 1.65517C11.5429 1.65517 11.1724 1.28465 11.1724 0.827586C11.1724 0.370523 11.5429 0 12 0C18.6244 0.0072976 23.9927 5.37561 24 12C24 12.2195 23.9128 12.43 23.7576 12.5852C23.6024 12.7404 23.3919 12.8276 23.1724 12.8276Z" fill="#FF6B00"/>
</svg>
