<svg width="24" height="24" viewBox="0 0 24 24" fill="none" xmlns="http://www.w3.org/2000/svg">
<path d="M23.7885 4.76807L16.5098 11.9999L23.7885 19.2317C23.92 18.9567 23.9999 18.6527 23.9999 18.328V5.67177C23.9999 5.34707 23.92 5.04308 23.7885 4.76807Z" fill="#FF6B00"/>
<path d="M21.8904 3.5625H2.10915C1.78444 3.5625 1.48046 3.64233 1.20544 3.77391L10.5084 13.03C11.331 13.8526 12.6686 13.8526 13.4911 13.03L22.7941 3.77391C22.5191 3.64233 22.2151 3.5625 21.8904 3.5625Z" fill="#FF6B00"/>
<path d="M0.211406 4.76807C0.0798281 5.04308 0 5.34707 0 5.67177V18.328C0 18.6527 0.0798281 18.9568 0.211406 19.2317L7.49011 11.9999L0.211406 4.76807Z" fill="#FF6B00"/>
<path d="M15.5154 12.9941L14.4854 14.0241C13.1148 15.3947 10.8847 15.3947 9.51409 14.0241L8.48415 12.9941L1.20544 20.226C1.48046 20.3575 1.78444 20.4374 2.10915 20.4374H21.8904C22.2151 20.4374 22.5191 20.3575 22.7941 20.226L15.5154 12.9941Z" fill="#FF6B00"/>
</svg>
