<svg width="158" height="33" viewBox="0 0 158 33" fill="none" xmlns="http://www.w3.org/2000/svg">
<path d="M148.727 16.3674C148.346 17.0781 147.712 17.6873 146.95 18.0173C146.188 18.3473 145.325 18.4488 144.513 18.3219C143.701 18.2204 142.889 17.9158 142.203 17.4335C141.518 16.9512 140.934 16.2912 140.579 15.5297C140.401 15.1489 140.274 14.7428 140.172 14.3112C140.096 13.9051 140.045 13.4735 140.071 13.042C140.096 12.2043 140.299 11.3413 140.68 10.5797C141.467 9.03128 142.863 7.88897 144.437 7.27975C146.011 6.64514 147.788 6.49282 149.463 6.87359C151.164 7.22897 152.712 8.16821 153.88 9.38666C155.073 10.6305 155.911 12.1028 156.495 13.6512C156.774 14.4381 157.002 15.2251 157.18 16.012C157.281 16.4181 157.332 16.7989 157.408 17.205C157.485 17.6112 157.51 18.0427 157.535 18.4489C157.637 20.1242 157.434 21.7742 157.002 23.3481C156.571 24.9219 155.911 26.4449 154.971 27.8157C154.058 29.1864 152.839 30.4049 151.367 31.2172C149.895 32.0549 148.168 32.4103 146.518 32.258C145.655 32.1818 144.818 31.8772 144.082 31.4203C143.371 30.938 142.762 30.278 142.381 29.4911C142 28.7295 141.822 27.8665 141.873 27.0034C141.899 26.5719 142 26.1403 142.152 25.7342C142.33 25.328 142.559 24.9726 142.863 24.6426C143.472 24.008 144.285 23.6273 145.148 23.5511C145.351 23.5258 145.579 23.5258 145.782 23.5511C145.884 23.5511 145.985 23.5765 146.112 23.6019C146.214 23.6273 146.315 23.6526 146.417 23.678C146.823 23.8303 147.204 24.0588 147.508 24.3634C148.118 24.998 148.346 25.9119 148.118 26.7496C147.991 27.1557 147.762 27.5365 147.432 27.8157C147.102 28.0949 146.671 28.2219 146.239 28.2219C146.163 28.2219 146.112 28.1711 146.112 28.0949C146.112 28.0188 146.163 27.968 146.239 27.968C146.595 27.968 146.95 27.8157 147.229 27.5872C147.508 27.3588 147.686 27.0288 147.762 26.6734C147.915 25.9626 147.686 25.2011 147.153 24.7188C146.899 24.465 146.595 24.2873 146.239 24.1857C145.909 24.0842 145.529 24.0842 145.173 24.135C144.462 24.2365 143.802 24.5919 143.32 25.0996C142.838 25.6327 142.584 26.318 142.584 27.0288C142.559 27.7395 142.736 28.4757 143.092 29.0849C143.422 29.7195 143.955 30.2272 144.539 30.608C145.148 30.9888 145.833 31.1918 146.518 31.2426C147.991 31.3441 149.463 30.9634 150.707 30.2018C151.951 29.4403 152.992 28.3488 153.778 27.0796C154.591 25.8357 155.149 24.4142 155.505 22.9673C155.86 21.5204 156.012 19.9973 155.885 18.525C155.86 18.1696 155.809 17.7889 155.758 17.4335C155.682 17.0527 155.606 16.6973 155.53 16.3166C155.352 15.5804 155.149 14.8697 154.87 14.1843C154.337 12.7882 153.601 11.4935 152.585 10.4782C152.332 10.2243 152.078 9.97048 151.798 9.76741C151.519 9.53895 151.24 9.3359 150.935 9.15821C150.631 8.98051 150.326 8.8282 149.996 8.6759C149.666 8.52359 149.336 8.42205 149.006 8.32052C147.635 7.93975 146.138 7.96512 144.767 8.42204C143.396 8.87896 142.178 9.79279 141.467 11.0366C141.112 11.6458 140.909 12.3566 140.858 13.0674C140.807 13.7781 140.909 14.5397 141.188 15.1997C141.721 16.545 143.041 17.535 144.513 17.7889C145.249 17.9158 146.011 17.8904 146.722 17.6112C147.407 17.3573 148.016 16.8496 148.397 16.1896C148.448 16.1135 148.524 16.0881 148.6 16.1389C148.727 16.2151 148.752 16.2912 148.727 16.3674Z" fill="white"/>
<path d="M152.712 10.0466C152.636 9.94504 152.535 9.81812 152.408 9.69119C152.306 9.56427 152.179 9.46272 152.052 9.36118C151.824 9.13272 151.57 8.92968 151.291 8.75198C150.758 8.37122 150.174 8.0666 149.565 7.83815C148.955 7.60969 148.321 7.45737 147.661 7.35584C147.001 7.27968 146.341 7.2543 145.681 7.27969C145.021 7.30507 144.361 7.43199 143.701 7.55892C143.041 7.71122 142.406 7.88892 141.772 8.11737C140.502 8.57429 139.284 9.15813 138.091 9.81812L136.289 10.8589C135.984 11.0366 135.654 11.1889 135.349 11.3666C135.045 11.5443 134.715 11.6965 134.385 11.8235C133.09 12.4327 131.77 12.9404 130.399 13.3212C127.683 14.1081 124.79 14.4635 121.921 14.1335C120.5 13.9558 119.078 13.575 117.758 12.9658C117.098 12.6358 116.463 12.2804 115.905 11.7981C115.347 11.3158 114.813 10.7827 114.407 10.1735C113.57 8.92967 113.189 7.38123 113.29 5.93432L113.316 5.65509L113.367 5.37586L113.443 4.84277C113.493 4.66508 113.519 4.462 113.57 4.28431C113.646 4.10662 113.697 3.92895 113.773 3.75126C114.077 3.06588 114.534 2.43126 115.118 1.94895C116.26 0.933579 117.86 0.52745 119.332 0.781294C120.093 0.908216 120.804 1.28895 121.337 1.82202C121.616 2.10125 121.845 2.40587 122.023 2.73586C122.2 3.06586 122.327 3.44666 122.403 3.80204C122.48 4.18281 122.48 4.56356 122.454 4.94433C122.403 5.32509 122.302 5.70584 122.124 6.03584C121.769 6.72122 121.109 7.25428 120.373 7.45736C119.992 7.55889 119.611 7.58428 119.23 7.53351C118.85 7.48274 118.469 7.33044 118.164 7.10198C117.53 6.61967 117.225 5.78201 117.403 5.02048C117.428 4.89356 117.53 4.84277 117.657 4.84277C117.758 4.86815 117.834 4.96971 117.834 5.09663C117.733 5.70585 117.987 6.36585 118.469 6.72123C118.723 6.89892 119.002 7.00047 119.306 7.05124C119.611 7.07662 119.941 7.05124 120.22 6.97509C120.804 6.7974 121.337 6.36584 121.591 5.80739C121.87 5.27432 121.896 4.58894 121.769 3.97971C121.693 3.6751 121.591 3.37047 121.439 3.09124C121.287 2.81201 121.083 2.58357 120.855 2.35511C120.398 1.92358 119.814 1.64437 119.205 1.54283C117.936 1.33976 116.59 1.72049 115.677 2.58356C115.194 3.0151 114.839 3.5228 114.585 4.10664C114.509 4.25895 114.483 4.41123 114.433 4.56354C114.382 4.71585 114.357 4.86817 114.331 5.02048L114.28 5.50279L114.255 5.75661V6.01047C114.179 7.30507 114.534 8.59968 115.27 9.66582C116.007 10.732 117.073 11.5189 118.266 12.1027C119.459 12.6612 120.779 12.9912 122.099 13.1435C124.764 13.4227 127.506 13.0673 130.12 12.2804C131.415 11.8996 132.684 11.392 133.928 10.8081C134.233 10.6558 134.537 10.5289 134.842 10.3512C135.146 10.1989 135.451 10.0466 135.756 9.8689L137.558 8.82813C138.802 8.14276 140.071 7.50813 141.442 7.02583C142.127 6.79737 142.812 6.5943 143.523 6.442C144.234 6.31508 144.945 6.18815 145.681 6.16277C148.575 5.98508 151.697 7.07661 153.499 9.53889C153.652 9.74197 153.601 10.0466 153.398 10.1989C153.195 10.3512 152.89 10.3004 152.738 10.0974L152.712 10.0466Z" fill="white"/>
<path d="M133.979 6.3912C134.131 6.61966 134.41 6.77199 134.689 6.77199C134.969 6.77199 135.223 6.59429 135.375 6.36583C135.527 6.13737 135.603 5.85815 135.578 5.57892C135.553 5.29969 135.426 5.04583 135.248 4.84275C134.893 4.41122 134.283 4.23355 133.776 4.38585C133.522 4.46201 133.293 4.61432 133.09 4.79201C132.887 4.99509 132.735 5.22352 132.633 5.47736C132.43 5.98505 132.405 6.59427 132.608 7.10196C132.633 7.17811 132.659 7.2289 132.684 7.27967C132.709 7.33044 132.76 7.40657 132.786 7.45734C132.862 7.58426 132.963 7.6858 133.039 7.81272C133.116 7.93964 133.243 8.01582 133.319 8.11736C133.42 8.21889 133.547 8.29502 133.649 8.37118C134.106 8.65041 134.664 8.7012 135.248 8.59967C135.806 8.49813 136.39 8.26967 136.949 8.04121C138.066 7.5589 139.183 7.00044 140.35 6.56891C141.518 6.16276 142.762 5.83276 144.031 5.80737C144.666 5.7566 145.3 5.83274 145.909 5.90889C146.214 5.95966 146.544 6.01045 146.849 6.0866C147.153 6.18814 147.458 6.23891 147.762 6.36583C148.955 6.77198 150.072 7.35582 151.088 8.06658C151.189 8.14273 151.215 8.26964 151.139 8.37118C151.062 8.47272 150.935 8.49811 150.834 8.42196C149.819 7.76196 148.727 7.20352 147.585 6.84814C147.305 6.7466 147.001 6.69584 146.722 6.61969C146.417 6.54354 146.138 6.51813 145.833 6.44198C145.249 6.36583 144.64 6.31506 144.031 6.36583C142.838 6.4166 141.67 6.72122 140.528 7.12737C139.386 7.53352 138.294 8.06657 137.152 8.57426C136.568 8.80272 135.984 9.05659 135.349 9.15813C135.197 9.18351 135.019 9.20887 134.867 9.20887H134.613L134.359 9.1835C134.182 9.1835 134.029 9.10734 133.852 9.05657C133.699 9.0058 133.547 8.90427 133.395 8.82812C133.268 8.72658 133.116 8.62503 132.989 8.49811C132.887 8.37119 132.76 8.26966 132.659 8.11736C132.557 7.99044 132.456 7.8635 132.379 7.7112C132.329 7.63505 132.303 7.5589 132.253 7.48275C132.227 7.4066 132.176 7.33045 132.151 7.2543C131.923 6.61969 131.923 5.88351 132.202 5.27428C132.329 4.96967 132.532 4.69046 132.786 4.462C133.039 4.23354 133.344 4.03048 133.674 3.95432C134.004 3.87817 134.359 3.90353 134.689 4.00506C135.019 4.13199 135.299 4.3097 135.527 4.58893C135.756 4.84278 135.883 5.17276 135.908 5.52814C135.933 5.85814 135.806 6.21351 135.603 6.46735C135.502 6.59427 135.375 6.69582 135.223 6.79736C135.07 6.87351 134.893 6.92429 134.715 6.92429C134.359 6.92429 134.055 6.72122 133.877 6.41661C133.852 6.39123 133.877 6.34043 133.903 6.31505C133.928 6.34043 133.953 6.34043 133.979 6.3912Z" fill="white"/>
<path d="M123.927 14.2857L0.12693 13.905C0.0507765 13.905 0 13.8542 0 13.7781C0 13.7019 0.0507765 13.6511 0.12693 13.6511L123.927 13.2704C124.206 13.2704 124.434 13.4988 124.46 13.7781C124.46 14.0319 124.231 14.2857 123.927 14.2857C123.952 14.2857 123.952 14.2857 123.927 14.2857Z" fill="white"/>
<path d="M119.053 5.14734C119.053 5.60426 118.697 5.95962 118.24 5.95962C117.783 5.95962 117.428 5.60426 117.428 5.14734C117.428 4.69042 117.783 4.33502 118.24 4.33502C118.697 4.33502 119.053 4.71581 119.053 5.14734Z" fill="white"/>
<path d="M134.842 6.16273C134.842 6.46734 134.613 6.69582 134.309 6.69582C134.004 6.69582 133.776 6.46734 133.776 6.16273C133.776 5.85812 134.004 5.62964 134.309 5.62964C134.588 5.62964 134.842 5.8835 134.842 6.16273Z" fill="white"/>
<path d="M147.839 16.875C148.441 16.875 148.93 16.3862 148.93 15.7834C148.93 15.1806 148.441 14.6919 147.839 14.6919C147.236 14.6919 146.747 15.1806 146.747 15.7834C146.747 16.3862 147.236 16.875 147.839 16.875Z" fill="white"/>
</svg>
