<svg width="152" height="33" viewBox="0 0 152 33" fill="none" xmlns="http://www.w3.org/2000/svg">
<path d="M9.72523 16.7928C10.106 16.1328 10.7152 15.6505 11.4006 15.3713C12.086 15.1174 12.8729 15.0667 13.609 15.1936C15.0813 15.4475 16.3759 16.4628 16.9344 17.7828C17.2136 18.4428 17.2898 19.179 17.2644 19.9151C17.2136 20.6259 17.0105 21.3366 16.6552 21.9458C15.9444 23.1897 14.7005 24.1035 13.3552 24.5604C11.9844 25.0174 10.4867 25.0427 9.11599 24.662C8.78599 24.5604 8.43062 24.4589 8.126 24.3066C7.79601 24.1543 7.49141 24.002 7.18679 23.8243C6.88218 23.6466 6.60296 23.4435 6.32373 23.215C6.04451 22.9866 5.79063 22.7581 5.53679 22.5043C4.5468 21.4635 3.78528 20.1689 3.25221 18.7982C2.97298 18.1128 2.76992 17.3767 2.59223 16.6659C2.51608 16.3105 2.43989 15.9298 2.36374 15.549C2.31297 15.1936 2.26223 14.8128 2.23685 14.4574C2.10993 12.9851 2.26222 11.4875 2.6176 10.0152C2.97298 8.56827 3.5568 7.14675 4.34372 5.90292C5.13063 4.65908 6.17141 3.54218 7.41524 2.78065C8.65908 2.01912 10.1314 1.63835 11.6036 1.73988C12.3144 1.76527 12.9998 1.99373 13.5837 2.37449C14.1675 2.75526 14.7006 3.26296 15.0306 3.89757C15.3859 4.5068 15.5636 5.24294 15.5382 5.9537C15.5382 6.66446 15.2844 7.34982 14.8021 7.8829C14.3452 8.41597 13.6598 8.77136 12.9491 8.84752C12.5937 8.89828 12.2129 8.89827 11.8829 8.79674C11.5529 8.6952 11.2229 8.51749 10.969 8.26365C10.4614 7.78134 10.2075 6.99446 10.3598 6.30908C10.436 5.9537 10.639 5.6237 10.8929 5.39524C11.1721 5.16678 11.5021 5.01445 11.8829 5.01445C11.959 5.01445 12.0098 4.96371 12.0098 4.88756C12.0098 4.81141 11.959 4.76063 11.8829 4.76063C11.4513 4.76063 11.0198 4.88756 10.6898 5.16679C10.3598 5.44602 10.1314 5.82678 10.0045 6.23293C9.776 7.07061 10.0298 7.98442 10.6137 8.61903C10.9183 8.94902 11.2991 9.17749 11.7052 9.30441C11.8067 9.3298 11.9083 9.35518 12.0098 9.38057C12.1113 9.40595 12.2383 9.43134 12.3398 9.43134C12.5429 9.45673 12.7714 9.45673 12.9744 9.43134C13.8375 9.35519 14.6498 8.97445 15.259 8.33984C15.5636 8.03522 15.8175 7.65444 15.9698 7.24829C16.1475 6.84214 16.249 6.4106 16.249 5.97907C16.2998 5.116 16.1221 4.25294 15.7413 3.49141C15.3605 2.72988 14.7767 2.04448 14.0406 1.56218C13.3298 1.07987 12.4667 0.775293 11.6036 0.724525C9.95366 0.57222 8.20217 0.92757 6.75526 1.76525C5.28297 2.60294 4.08991 3.79603 3.15069 5.16679C2.23685 6.53755 1.55147 8.06059 1.11993 9.63442C0.688398 11.2083 0.485306 12.8836 0.586843 14.5336C0.612228 14.9397 0.663004 15.3713 0.713773 15.7774C0.789926 16.1836 0.86607 16.5897 0.942223 16.9705C1.11991 17.7574 1.34838 18.5697 1.62761 19.3312C2.21145 20.8797 3.04913 22.3774 4.2422 23.5958C5.40988 24.8143 6.98372 25.7535 8.65909 26.1089C10.3345 26.4897 12.1114 26.3373 13.6852 25.7027C15.259 25.0681 16.6805 23.9258 17.4421 22.4028C17.8228 21.6412 18.0259 20.7782 18.0513 19.9405C18.0513 19.5089 18.0259 19.1028 17.9497 18.6713C17.8736 18.2651 17.7467 17.8336 17.5436 17.4528C17.1629 16.6913 16.6044 16.0313 15.919 15.549C15.2336 15.0667 14.4213 14.7621 13.609 14.6605C12.7967 14.559 11.9337 14.6351 11.1721 14.9651C10.4106 15.2951 9.77599 15.879 9.39522 16.6151C9.36984 16.6913 9.39523 16.7674 9.446 16.8182C9.59831 16.869 9.69985 16.8436 9.72523 16.7928Z" fill="white"/>
<path d="M4.72442 23.469C6.5521 25.9566 9.649 27.0228 12.5428 26.8451C13.279 26.8197 13.9897 26.6928 14.7005 26.5658C15.4112 26.4135 16.0966 26.2359 16.782 25.982C18.1274 25.4997 19.422 24.8905 20.6658 24.1797L22.4681 23.1389C22.7727 22.9613 23.0773 22.809 23.3819 22.6567C23.6865 22.5044 23.9911 22.352 24.2957 22.1997C25.5396 21.6159 26.7834 21.1082 28.1034 20.7274C30.6926 19.9405 33.4341 19.5851 36.1249 19.8644C37.4702 20.0167 38.7649 20.3467 39.9579 20.9051C41.151 21.4636 42.2171 22.2759 42.9533 23.342C43.6894 24.3828 44.0448 25.6774 43.9686 26.9974V27.2512L43.9433 27.5051L43.8925 27.9874C43.8671 28.1397 43.8163 28.292 43.791 28.4443C43.7402 28.5966 43.6894 28.7489 43.6387 28.9012C43.3848 29.485 43.0294 30.0181 42.5471 30.4243C41.6079 31.2874 40.2625 31.6681 39.0187 31.465C38.4095 31.3635 37.8256 31.0843 37.3687 30.6527C37.1403 30.4497 36.9372 30.1958 36.7849 29.9166C36.6326 29.6374 36.531 29.3581 36.4549 29.0281C36.328 28.4189 36.3533 27.7335 36.6326 27.2005C36.9118 26.642 37.4195 26.2104 38.0033 26.0328C38.3079 25.9312 38.6126 25.9058 38.9172 25.9566C39.2218 25.982 39.501 26.0835 39.7549 26.2866C40.2372 26.642 40.5164 27.302 40.3895 27.9112C40.3641 28.0381 40.4402 28.1397 40.5671 28.1651C40.6687 28.1905 40.7956 28.1143 40.821 27.9874C40.9733 27.2258 40.6687 26.3882 40.0595 25.9059C39.7548 25.652 39.3741 25.4997 38.9933 25.4743C38.6126 25.4236 38.2318 25.449 37.851 25.5505C37.1149 25.7536 36.4549 26.2612 36.0995 26.972C35.9218 27.302 35.8203 27.7081 35.7695 28.0635C35.7441 28.4443 35.7441 28.825 35.8203 29.2058C35.8964 29.5866 36.0233 29.942 36.201 30.272C36.3787 30.602 36.6072 30.9066 36.8864 31.1858C37.4195 31.7189 38.1556 32.0996 38.8918 32.2266C40.3641 32.5058 41.9633 32.0743 43.1056 31.0589C43.664 30.5766 44.1463 29.942 44.4509 29.2566C44.5271 29.0789 44.5779 28.9012 44.654 28.7235C44.7048 28.5458 44.7556 28.3428 44.781 28.1651L44.8571 27.632L44.9079 27.3528L44.9333 27.0735C45.0348 25.6012 44.654 24.0528 43.8163 22.8343C43.4102 22.1997 42.8771 21.6667 42.3187 21.2097C41.7602 20.7274 41.1002 20.372 40.4656 20.042C39.1456 19.4074 37.7241 19.0521 36.3026 18.8744C33.4342 18.5444 30.5657 18.8998 27.8242 19.6867C26.4534 20.0674 25.1335 20.6005 23.8389 21.1844C23.5089 21.3367 23.2042 21.489 22.8742 21.6413C22.5696 21.819 22.2396 21.9713 21.935 22.149L20.1327 23.1897C18.9397 23.8497 17.7212 24.4336 16.452 24.8905C15.8174 25.1189 15.1828 25.2966 14.5228 25.4489C13.8628 25.5759 13.2028 25.7028 12.5428 25.7282C11.8828 25.7535 11.2228 25.7535 10.5628 25.652C9.90284 25.5505 9.26823 25.3982 8.65901 25.1697C8.04978 24.9412 7.46592 24.6366 6.93285 24.2559C6.67901 24.0782 6.39977 23.8751 6.17131 23.6467C6.04439 23.5451 5.94285 23.4182 5.81593 23.3167C5.7144 23.2151 5.58749 23.0628 5.51133 22.9613L5.48596 22.9105C5.33366 22.7074 5.02902 22.6567 4.82594 22.809C4.59748 22.9867 4.57212 23.2659 4.72442 23.469Z" fill="white"/>
<path d="M24.3211 26.5657C24.1688 26.2865 23.8388 26.0834 23.4835 26.058C23.3058 26.058 23.1281 26.0834 22.9758 26.185C22.8235 26.2611 22.6965 26.388 22.595 26.5149C22.3919 26.7688 22.265 27.1242 22.2904 27.4542C22.2904 27.7842 22.4427 28.1395 22.6711 28.3934C22.8742 28.6472 23.1788 28.8503 23.5088 28.9772C23.8388 29.0787 24.1942 29.1041 24.5242 29.028C24.8542 28.9518 25.1588 28.7488 25.4127 28.5203C25.6665 28.2919 25.8696 28.0126 25.9965 27.708C26.2757 27.0988 26.3011 26.3626 26.0473 25.728C26.0219 25.6519 25.9711 25.5757 25.9457 25.4996C25.9204 25.4234 25.8696 25.3473 25.8188 25.2711C25.7173 25.1442 25.6411 24.9919 25.5396 24.865C25.438 24.738 25.3111 24.6111 25.2096 24.4842C25.0826 24.3572 24.9558 24.2811 24.8035 24.1542C24.6511 24.078 24.4988 23.9765 24.3465 23.9257C24.1688 23.875 24.0165 23.8242 23.8388 23.7988L23.585 23.7734H23.3312C23.1535 23.7734 23.0012 23.7988 22.8488 23.8242C22.2142 23.9257 21.605 24.1796 21.0465 24.408C19.9042 24.8903 18.8127 25.4234 17.6704 25.8549C16.5281 26.2611 15.3605 26.5657 14.1674 26.6165C13.5582 26.6673 12.9743 26.6165 12.3651 26.5403C12.0605 26.4896 11.7813 26.4388 11.4767 26.3626C11.1974 26.2865 10.8928 26.2357 10.6136 26.1342C9.47126 25.7534 8.37974 25.195 7.36436 24.5604C7.26283 24.4842 7.11053 24.535 7.05976 24.6365C6.98361 24.738 7.03439 24.865 7.11054 24.9411C8.12592 25.6519 9.24282 26.2357 10.4359 26.6419C10.7405 26.7434 11.0451 26.8195 11.3497 26.9211C11.6543 26.9972 11.9589 27.048 12.2889 27.0988C12.9235 27.1749 13.5582 27.2257 14.1674 27.2003C15.4366 27.1495 16.6804 26.8449 17.8481 26.4388C19.0158 26.0072 20.1327 25.4488 21.2496 24.9665C21.8081 24.738 22.3665 24.5096 22.9504 24.408C23.5088 24.3065 24.0927 24.3573 24.5496 24.6365C24.6511 24.7127 24.7781 24.7888 24.8796 24.8903C24.9811 24.9919 25.0827 25.0934 25.1588 25.195C25.235 25.3219 25.3365 25.4234 25.4127 25.5503C25.438 25.6011 25.4888 25.6772 25.5142 25.728C25.5396 25.7788 25.565 25.855 25.5904 25.9057C25.7934 26.4134 25.7934 27.0226 25.565 27.5303C25.4634 27.7842 25.3111 28.0126 25.1081 28.2157C24.905 28.4187 24.6765 28.5711 24.4227 28.6218C23.915 28.7741 23.3057 28.5965 22.9504 28.1649C22.7473 27.9619 22.6458 27.708 22.6204 27.4288C22.595 27.1495 22.6712 26.8703 22.8235 26.6419C22.9758 26.4134 23.2296 26.2357 23.5088 26.2357C23.7881 26.2357 24.0673 26.3626 24.2196 26.6165C24.245 26.6419 24.2704 26.6672 24.3211 26.6419C24.3465 26.6165 24.3465 26.5911 24.3211 26.5657Z" fill="white"/>
<path d="M34.2719 19.7628L151.751 19.382C151.827 19.382 151.878 19.3312 151.878 19.255C151.878 19.1789 151.827 19.1281 151.751 19.1281L34.2719 18.7474C33.9926 18.7474 33.7642 18.9758 33.7388 19.255C33.7388 19.5343 33.9672 19.7628 34.2719 19.7628C34.2465 19.7628 34.2719 19.7628 34.2719 19.7628Z" fill="white"/>
<path d="M39.1457 27.8604C39.1457 27.4035 39.5011 27.0481 39.958 27.0481C40.4149 27.0481 40.7703 27.4035 40.7703 27.8604C40.7703 28.3173 40.4149 28.6727 39.958 28.6727C39.5011 28.6727 39.1457 28.2919 39.1457 27.8604Z" fill="white"/>
<path d="M23.3567 26.845C23.3567 26.5404 23.5852 26.3119 23.8898 26.3119C24.1944 26.3119 24.4228 26.5404 24.4228 26.845C24.4228 27.1496 24.1944 27.3781 23.8898 27.3781C23.6106 27.3781 23.3567 27.1243 23.3567 26.845Z" fill="white"/>
<path d="M10.3599 16.1328C10.9628 16.1328 11.4514 16.6215 11.4514 17.2243C11.4514 17.8272 10.9628 18.3159 10.3599 18.3159C9.75709 18.3159 9.26837 17.8272 9.26837 17.2243C9.26837 16.6215 9.75709 16.1328 10.3599 16.1328Z" fill="white"/>
</svg>
